<svg id="svg" version="1.1" xmlns="http://www.w3.org/2000/svg" xmlns:xlink="http://www.w3.org/1999/xlink" width="400" height="400" viewBox="0, 0, 400,400"><g id="svgg"><path id="path0" d="M202.127 12.550 C 185.212 15.306,176.006 37.810,184.510 55.618 C 194.366 76.259,207.569 86.904,212.202 77.946 C 213.918 74.627,213.083 72.408,207.890 66.486 C 195.300 52.127,191.958 42.189,196.593 32.888 C 200.994 24.056,209.384 23.288,219.241 30.815 C 223.761 34.265,226.202 34.340,230.166 31.148 C 239.887 23.320,248.978 24.001,253.407 32.888 C 258.965 44.042,255.535 49.619,226.018 77.411 C 209.418 93.042,207.729 103.735,219.779 116.919 C 225.332 122.995,225.803 128.113,221.560 136.244 C 217.149 144.697,218.300 150.000,224.545 150.000 C 228.491 150.000,229.376 149.451,231.991 145.375 C 240.396 132.277,239.583 118.349,229.783 107.527 C 222.756 99.768,223.272 98.656,242.444 80.267 C 265.692 57.969,270.516 49.970,268.652 36.811 C 265.696 15.936,247.732 6.605,228.779 16.101 L 225.136 17.926 220.576 15.624 C 218.068 14.358,214.434 13.118,212.500 12.868 C 210.566 12.619,208.281 12.308,207.422 12.178 C 206.562 12.048,204.180 12.215,202.127 12.550 M16.716 57.312 C 5.689 60.920,-0.464 70.371,0.132 82.784 C 0.636 93.283,-1.056 91.275,52.886 145.367 L 101.633 194.251 95.802 199.036 C 76.003 215.286,71.070 233.231,77.297 266.351 C 90.685 337.564,143.189 374.575,230.859 374.602 C 295.542 374.621,336.074 357.712,363.602 319.223 C 384.276 290.318,393.965 240.017,383.025 218.393 C 359.853 172.589,250.589 148.836,160.654 170.052 L 152.167 172.054 96.201 116.228 C 50.933 71.074,39.488 60.056,36.328 58.591 C 31.529 56.366,21.590 55.718,16.716 57.312 M30.312 70.653 C 32.598 71.868,137.273 176.311,136.685 176.790 C 136.489 176.950,134.219 177.910,131.641 178.923 C 129.063 179.936,123.982 182.121,120.351 183.778 L 113.749 186.791 64.637 137.732 C 37.625 110.749,15.019 87.723,14.403 86.562 C 9.277 76.920,20.670 65.527,30.312 70.653 M256.143 78.241 C 247.658 87.432,247.597 102.725,255.996 114.936 C 262.163 123.901,263.438 131.017,259.773 136.017 C 253.922 143.999,255.190 150.000,262.726 150.000 C 275.531 150.000,278.959 125.634,268.448 109.329 C 261.665 98.807,261.193 93.669,266.408 87.107 C 273.426 78.276,263.792 69.956,256.143 78.241 M250.287 176.171 C 339.470 179.950,398.982 224.384,363.470 260.679 C 306.334 319.076,109.910 308.082,89.388 245.338 C 77.588 209.265,154.745 172.321,235.156 175.542 C 237.949 175.654,244.758 175.937,250.287 176.171 M203.906 200.839 C 163.140 205.245,127.886 217.349,115.326 231.251 C 107.263 240.177,116.654 248.685,125.297 240.284 C 162.074 204.541,300.421 204.536,337.195 240.277 C 346.394 249.218,355.482 239.885,346.632 230.585 C 326.705 209.647,256.940 195.107,203.906 200.839 M104.269 282.106 C 125.144 296.319,155.992 306.135,195.313 311.078 C 206.432 312.476,255.955 312.485,267.188 311.092 C 311.656 305.574,344.931 293.727,367.793 275.272 C 369.201 274.136,370.195 273.698,370.003 274.299 C 369.811 274.899,368.704 278.379,367.543 282.031 C 350.996 334.079,303.660 361.775,231.250 361.775 C 158.862 361.775,111.499 334.064,94.957 282.031 C 93.796 278.379,92.689 274.899,92.497 274.299 C 92.305 273.698,93.299 274.136,94.707 275.272 C 96.114 276.408,100.417 279.483,104.269 282.106 " stroke="none" fill="#000000" fill-rule="evenodd"></path></g></svg>